<?xml version="1.0" encoding="UTF-8" standalone="no"?>
<!DOCTYPE svg PUBLIC "-//W3C//DTD SVG 20010904//EN" "http://www.w3.org/TR/2001/REC-SVG-20010904/DTD/svg10.dtd">
<svg version="1.0" xmlns="http://www.w3.org/2000/svg" width="100.000000pt" height="100.000000pt" viewBox="0 0 300.000000 300.000000" preserveAspectRatio="xMidYMid meet">
<metadata>
Created by potrace 1.10, written by Peter Selinger 2001-2011
</metadata>
<g transform="translate(0.000000,300.000000) scale(0.100000,-0.100000)" fill="#ffffff" stroke="none">
<path d="M1357 2536 c-10 -26 -8 -56 7 -98 13 -36 13 -38 -8 -38 -11 0 -31 -3 -44 -6 -22 -6 -22 -7 10 -27 l33 -20 -40 -14 c-22 -7 -49 -23 -60 -34 l-20 -20 40 7 40 7 -42 -46 c-24 -26 -43 -51 -43 -57 0 -12 17 -13 24 -1 3 5 14 11 25 14 17 4 16 1 -5 -37 -13 -22 -24 -57 -24 -76 l0 -35 19 24 c18 23 18 23 13 -31 -7 -91 34 -204 120 -331 57 -84 78 -135 78 -193 0 -97 -64 -154 -175 -154 -73 0 -121 22 -152 69 -32 48 -29 81 17 167 22 42 40 82 40 90 0 9 5 12 10 9 6 -3 10 -18 10 -33 0 -20 3 -23 12 -14 14 14 16 103 4 152 l-8 35 26 -24 c48 -45 20 38 -41 121 -33 45 -34 49 -12 38 13 -7 32 -19 42 -28 11 -10 17 -11 17 -3 0 19 -79 98 -113 112 l-32 14 35 5 35 6 -32 17 c-18 10 -53 20 -77 23 l-45 7 21 40 c15 30 19 53 16 89 -6 62 -24 83 -26 31 -1 -30 -9 -45 -37 -70 -38 -36 -58 -43 -48 -17 5 14 3 14 -26 -1 -18 -9 -35 -14 -38 -12 -2 3 5 23 17 46 11 23 17 41 12 41 -17 0 -52 -41 -71 -85 -21 -47 -43 -61 -34 -22 l5 22 -19 -21 c-10 -11 -23 -19 -28 -17 -6 2 -19 -11 -30 -29 -16 -27 -20 -30 -23 -15 -3 15 -8 12 -28 -17 -14 -20 -32 -36 -40 -36 -8 0 -21 -15 -29 -34 -8 -19 -19 -37 -25 -41 -5 -3 -10 -14 -10 -24 0 -9 -21 -32 -46 -49 -48 -35 -51 -47 -17 -101 14 -21 17 -22 25 -7 7 12 14 14 28 6 10 -5 29 -10 41 -10 22 0 22 1 4 14 -18 13 -17 14 13 30 35 18 100 23 70 5 -10 -5 -18 -17 -18 -24 0 -8 -4 -15 -9 -15 -5 0 -11 -14 -15 -31 -3 -17 -10 -28 -16 -24 -5 3 -10 1 -10 -4 0 -6 -8 -11 -17 -11 -13 0 -10 -7 12 -30 17 -17 31 -26 33 -20 2 5 19 10 38 10 31 0 34 2 24 20 -9 16 -6 22 15 36 14 9 35 14 48 11 l22 -6 -23 18 -24 17 27 18 c14 10 40 18 56 18 24 1 28 5 24 20 -8 22 -4 22 41 3 l36 -15 -16 25 c-16 24 -16 25 8 25 31 0 66 -43 66 -82 0 -53 -26 -93 -115 -173 -49 -44 -101 -98 -117 -119 -15 -21 -28 -34 -28 -28 0 19 30 104 56 157 l24 50 -40 -44 c-166 -182 -185 -516 -43 -761 45 -77 166 -201 246 -254 84 -55 203 -104 310 -127 130 -29 314 -23 442 16 358 106 585 388 585 728 0 157 -45 291 -130 387 l-40 45 39 -85 c50 -110 71 -197 71 -296 l0 -79 -34 60 c-18 33 -36 82 -39 109 -10 72 -54 160 -123 248 -34 43 -68 94 -74 114 -15 46 -5 99 23 119 29 20 40 19 27 -4 -15 -28 -13 -33 9 -21 29 15 51 13 45 -5 -4 -10 0 -15 15 -15 27 0 81 -27 81 -40 0 -5 -8 -14 -17 -19 -16 -9 -15 -10 5 -11 38 0 64 -19 57 -41 -5 -15 -2 -19 17 -19 13 0 29 -5 36 -12 8 -8 16 -5 31 13 28 33 27 41 -5 38 -4 0 -17 22 -29 49 -13 27 -29 52 -36 55 -11 3 -10 6 3 12 18 7 88 -21 88 -36 0 -5 -4 -9 -10 -9 -5 0 -10 -5 -10 -11 0 -6 9 -8 20 -5 11 3 29 9 40 12 15 4 20 1 20 -12 0 -16 2 -16 14 -4 7 8 19 31 25 50 13 38 15 35 -54 83 -14 10 -25 26 -25 37 0 10 -5 20 -11 22 -7 2 -17 19 -23 38 -6 19 -17 35 -25 35 -7 0 -28 18 -47 40 -25 30 -32 35 -28 18 10 -36 -3 -27 -32 22 -28 48 -40 57 -31 25 10 -37 -14 -20 -32 23 -17 39 -77 104 -88 94 -2 -3 7 -22 22 -42 32 -48 32 -62 0 -41 -31 20 -39 20 -31 0 5 -12 1 -14 -17 -8 -56 18 -97 67 -97 116 0 17 -3 19 -12 10 -20 -20 -14 -105 10 -146 12 -20 22 -39 22 -42 0 -2 -15 -4 -32 -4 -18 0 -53 -10 -78 -22 l-45 -22 40 -6 c35 -5 37 -7 17 -14 -32 -11 -80 -54 -97 -87 -20 -37 -19 -45 3 -27 9 9 28 21 42 28 24 13 24 13 7 -11 -44 -62 -68 -111 -73 -146 -5 -37 -5 -38 12 -15 20 27 38 29 29 2 -10 -32 -7 -127 4 -147 9 -16 10 -15 11 7 1 47 16 53 28 12 7 -21 30 -67 53 -103 62 -95 79 -137 79 -200 0 -31 -2 -58 -5 -61 -3 -3 -34 3 -68 14 -34 10 -84 22 -112 26 -42 7 -49 11 -46 27 2 11 4 65 4 120 1 125 -18 180 -109 303 -85 115 -114 172 -114 222 0 22 4 40 9 40 16 0 33 -30 28 -50 -3 -12 0 -20 8 -20 19 0 38 -27 25 -35 -20 -12 -10 -23 25 -27 27 -3 40 1 55 17 27 29 25 43 -4 38 -19 -4 -26 0 -31 19 -4 12 -11 25 -14 28 -4 3 -14 17 -24 33 -15 23 -15 27 -2 27 19 0 55 -36 55 -55 0 -18 12 -19 27 -4 7 7 15 6 26 -6 15 -14 17 -14 25 2 24 47 22 70 -9 102 -18 19 -27 36 -22 44 13 21 11 136 -3 130 -7 -2 -14 10 -19 34 -3 21 -17 57 -31 80 -13 23 -24 54 -24 70 l-1 28 -14 -25 c-8 -14 -14 -38 -15 -54 l0 -30 -35 34 c-19 18 -37 47 -41 64 l-7 31 -9 -25 c-5 -14 -7 -40 -3 -57 3 -18 3 -33 0 -33 -10 0 -80 47 -91 61 -6 8 -16 27 -21 43 -8 25 -10 27 -16 12z m126 -174 c42 -45 57 -49 36 -10 -12 22 -11 22 7 8 10 -8 29 -23 42 -34 25 -22 26 -19 12 21 l-10 28 25 -30 c14 -16 28 -40 31 -52 4 -13 10 -23 15 -23 5 0 9 -14 9 -32 0 -31 0 -31 -21 -12 l-21 19 16 -40 c9 -22 25 -52 36 -67 32 -44 23 -55 -15 -18 -19 18 -32 37 -29 41 2 4 -13 13 -35 19 -22 6 -43 15 -46 20 -8 13 -4 13 40 -6 20 -8 39 -13 42 -11 2 3 -35 45 -84 94 -81 80 -123 131 -123 149 0 9 28 -15 73 -64z m-42 -59 c18 -11 27 -23 24 -33 -3 -9 2 -25 10 -36 19 -25 19 -34 -2 -34 -15 0 -16 -2 -3 -10 12 -8 10 -10 -10 -10 -14 0 -36 3 -50 7 -24 7 -23 8 10 13 l35 6 -30 16 -30 17 35 1 34 0 -39 40 c-41 42 -34 52 16 23z m-436 -146 c-14 -21 -82 -67 -100 -67 -22 0 84 88 108 89 4 1 1 -9 -8 -22z m1062 -39 c15 -16 22 -28 17 -28 -17 0 -83 50 -95 71 -11 21 -11 21 20 3 18 -10 44 -31 58 -46z m-1223 -39 l-49 -50 40 14 c41 14 152 32 125 20 -8 -4 -44 -17 -80 -29 l-65 -21 58 -8 c31 -4 68 -5 82 -3 40 8 29 -1 -35 -29 -65 -28 -67 -39 -10 -45 l35 -4 -45 -10 c-50 -11 -110 -6 -75 6 19 7 18 8 -4 15 -25 8 -25 8 10 26 l34 18 -31 1 c-17 0 -52 -9 -78 -21 -26 -11 -61 -19 -79 -17 l-32 3 45 16 c35 12 49 24 66 57 12 23 20 42 18 42 -5 0 -61 -37 -103 -67 l-24 -17 16 31 c11 20 32 38 59 50 24 10 70 32 103 48 33 17 62 29 64 27 3 -1 -17 -25 -45 -53z m586 51 c-20 -13 -33 -13 -25 0 3 6 14 10 23 10 15 0 15 -2 2 -10z m873 -108 c9 -8 17 -21 17 -29 0 -10 -10 -7 -32 10 -18 14 -47 32 -65 41 l-31 16 24 -44 c20 -36 34 -48 70 -60 44 -15 129 -74 120 -83 -2 -2 -23 5 -47 17 -28 15 -38 25 -30 30 16 10 -9 20 -50 20 -16 0 -47 9 -69 20 -22 11 -52 20 -67 19 l-28 0 33 -16 c31 -16 43 -33 22 -33 -5 0 -10 -7 -10 -15 0 -16 -28 -18 -70 -5 -26 8 -19 14 25 23 15 3 2 12 -45 35 l-65 32 73 0 c39 0 72 4 72 8 0 5 -27 17 -60 27 -34 10 -63 21 -65 25 -7 11 88 -7 130 -24 l38 -16 -42 45 c-22 24 -41 49 -41 54 0 10 163 -72 193 -97z m-837 16 c1 -72 24 -125 98 -223 40 -53 43 -60 25 -63 -30 -5 -80 29 -121 84 -40 52 -50 78 -20 51 25 -22 39 -22 20 1 -22 25 -58 98 -58 119 0 16 1 16 13 -1 11 -15 12 -12 13 21 0 21 3 46 7 56 13 34 23 16 23 -45z m-391 42 c13 -6 15 -9 5 -9 -8 0 -22 4 -30 9 -18 12 -2 12 25 0z m870 -10 c-27 -12 -43 -12 -25 0 8 5 22 9 30 9 10 0 8 -3 -5 -9z m-1301 -145 c5 -15 -38 -45 -66 -45 -9 0 46 56 58 60 1 0 4 -7 8 -15z m447 -117 c1 -60 17 -20 19 47 2 49 2 49 12 18 16 -48 1 -116 -37 -173 -37 -55 -37 -60 6 -29 16 11 29 18 29 14 0 -16 -37 -59 -69 -81 -33 -22 -34 -24 -12 -24 l24 0 -19 -22 c-17 -19 -20 -37 -19 -108 0 -75 4 -93 33 -150 18 -36 30 -56 27 -46 -13 43 -18 136 -8 136 6 0 14 -12 18 -27 14 -57 129 -213 157 -213 5 0 6 5 3 10 -10 16 5 12 35 -10 42 -30 132 -68 161 -68 13 0 51 -4 84 -10 72 -11 185 1 258 28 l52 19 -30 -24 c-34 -29 -115 -61 -178 -72 l-42 -8 40 -5 40 -6 -60 -13 c-125 -28 -273 -2 -400 71 l-50 29 35 -33 c19 -18 46 -41 60 -50 l25 -18 -27 10 c-66 23 -157 96 -209 169 -41 57 -79 160 -79 215 -1 27 -2 29 -12 12 -6 -11 -8 -45 -5 -85 l5 -66 -26 55 c-29 63 -41 177 -23 232 6 19 34 61 62 94 92 107 110 178 69 259 l-21 40 36 -37 c28 -31 35 -46 36 -80z m884 62 c-35 -68 -6 -160 84 -265 51 -59 62 -89 39 -98 -7 -3 -3 -6 9 -6 27 -1 65 -87 44 -100 -9 -6 -8 -15 5 -37 20 -34 13 -84 -12 -84 -11 0 -12 -4 -4 -19 17 -32 13 -82 -7 -87 -14 -4 -18 -16 -18 -47 0 -24 -12 -67 -28 -102 -24 -51 -30 -57 -38 -42 -9 15 -15 9 -40 -42 -34 -67 -59 -95 -59 -65 0 15 -3 14 -16 -6 -22 -33 -106 -120 -116 -120 -4 0 -4 8 -1 18 4 10 -10 2 -34 -20 -51 -45 -83 -63 -83 -48 0 7 -14 3 -32 -8 -70 -43 -158 -65 -268 -66 -58 0 -123 3 -145 8 l-40 9 77 13 c95 17 219 62 306 111 37 21 75 38 84 39 9 1 47 25 84 55 36 30 70 53 75 52 12 -4 129 139 172 210 45 73 68 148 70 223 2 39 6 54 16 54 12 0 11 3 -2 18 -8 9 -26 42 -39 72 -14 30 -52 87 -86 127 -95 109 -119 178 -88 248 13 29 13 29 8 -18 -5 -51 17 -125 44 -148 13 -10 13 -8 4 15 -5 15 -10 49 -10 76 0 38 6 55 26 79 32 39 39 39 19 1z m-378 -135 c24 -5 36 -16 52 -48 12 -24 17 -43 11 -45 -19 -7 -95 46 -114 78 -18 31 -18 32 0 27 11 -3 33 -8 51 -12z m50 -101 c13 -4 29 -18 34 -31 10 -27 12 -73 3 -73 -18 0 -68 48 -80 76 -18 42 -18 48 2 40 9 -3 27 -9 41 -12z m11 -104 c26 -16 32 -26 32 -54 0 -18 -7 -39 -15 -46 -8 -7 -15 -23 -15 -37 0 -38 -18 -65 -39 -58 -15 4 -17 1 -14 -19 6 -30 -44 -88 -57 -67 -5 9 -17 6 -44 -13 -55 -37 -85 -40 -152 -15 l-59 23 62 12 c34 8 79 22 100 33 82 42 152 146 153 224 0 43 3 44 48 17z m-908 -315 c6 4 10 -11 10 -33 0 -22 9 -68 20 -103 37 -123 112 -212 219 -263 59 -28 76 -31 157 -31 83 0 96 3 155 33 l64 33 -30 -31 c-35 -36 -26 -37 40 -5 l50 24 -45 -43 c-68 -65 -142 -89 -256 -84 -79 3 -100 8 -160 38 -191 93 -307 351 -251 558 l12 47 3 -73 c2 -43 7 -70 12 -67z m1076 32 l39 -14 -32 -16 c-46 -24 -140 -47 -191 -47 l-43 0 43 51 43 51 51 -6 c27 -3 68 -12 90 -19z m-831 -190 c22 -28 68 -70 102 -93 69 -47 68 -58 -9 -57 -76 1 -133 48 -152 126 -7 28 1 78 13 76 3 0 24 -23 46 -52z m1180 -163 c-8 -29 -23 -62 -33 -71 -10 -10 -30 -35 -45 -55 -15 -21 -36 -42 -46 -48 -15 -8 -11 5 17 60 19 38 46 114 58 167 15 66 23 87 23 63 2 -48 18 -21 28 45 8 49 8 49 11 -28 2 -50 -3 -98 -13 -133z"/>
<path d="M590 1755 c-14 -17 -46 -20 -55 -5 -3 6 -16 10 -28 10 l-21 0 22 -16 c24 -17 29 -49 10 -57 -7 -3 -1 -6 14 -6 42 -1 56 8 69 46 12 39 8 51 -11 28z"/>
<path d="M2380 1740 c0 -30 44 -70 76 -70 26 0 27 1 10 19 -17 19 -17 21 8 45 28 29 13 35 -22 10 -21 -14 -25 -14 -47 0 -24 16 -25 15 -25 -4z"/>
</g>
</svg>
